<svg xmlns="http://www.w3.org/2000/svg" version="1.1" xmlns:xlink="http://www.w3.org/1999/xlink" xmlns:svgjs="http://svgjs.dev/svgjs" width="2000" height="651" viewBox="0 0 2000 651"><g transform="matrix(1,0,0,1,-1.2121212121212466,0.40032231229668014)"><svg viewBox="0 0 396 129" data-background-color="#00ffef" preserveAspectRatio="xMidYMid meet" height="651" width="2000" xmlns="http://www.w3.org/2000/svg" xmlns:xlink="http://www.w3.org/1999/xlink"><g id="tight-bounds" transform="matrix(1,0,0,1,0.2400000000000091,-0.07932654114634374)"><svg viewBox="0 0 395.52 129.15865308229272" height="129.15865308229272" width="395.52"><g><svg viewBox="0 0 600.7143118782657 196.16568418652182" height="129.15865308229272" width="395.52"><g transform="matrix(1,0,0,1,205.1943118782657,55.3879151930322)"><svg viewBox="0 0 395.52 85.38985380045742" height="85.38985380045742" width="395.52"><g id="textblocktransform"><svg viewBox="0 0 395.52 85.38985380045742" height="85.38985380045742" width="395.52" id="textblock"><g><svg viewBox="0 0 395.52 38.244580947423216" height="38.244580947423216" width="395.52"><g transform="matrix(1,0,0,1,0,0)"><svg width="395.52" viewBox="2.799999952316284 -36.150001525878906 384.1800231933594 37.150001525878906" height="38.244580947423216" data-palette-color="#010c80"><path d="M2.85-3.5L2.85-3.5 2.8-30.65Q3.2-34.8 6.35-35L6.35-35Q8.6-35.05 36.3-35.05L36.3-35.05Q39.3-35.05 39.3-30.6L39.3-30.6Q39.3-28.35 36.65-28.35L36.65-28.35 25.75-28.35Q24.7-28.35 24.08-27.65 23.45-26.95 23.45-25.8L23.45-25.8 23.45-22.25Q23.45-20.7 24.75-20.7L24.75-20.7 33.05-20.7Q34.25-20.7 34.85-20.15 35.45-19.6 35.45-17.63 35.45-15.65 34.88-15.1 34.3-14.55 33-14.55L33-14.55 25.55-14.55Q24.3-14.55 23.83-13.95 23.35-13.35 23.35-12.05L23.35-12.05 23.35-3.45Q23.35-1.7 22.6-0.85 21.85 0 20.65 0L20.65 0 6.45 0Q5.05 0 4.05-0.93 3.05-1.85 2.85-3.5ZM59.15 1Q54.85 1 51.12 0.05 47.4-0.9 45.87-1.85 44.35-2.8 43.85-3.2L43.85-3.2Q42.55-4.25 42.55-6.1L42.55-6.1Q42.55-7.55 42.9-8.85L42.9-8.85Q43.55-11.3 45.25-11.3L45.25-11.3Q45.8-11.25 48.77-10.15 51.75-9.05 53.45-9.05L53.45-9.05Q56-9.05 56-11.05L56-11.05Q56-12.25 54.75-13.28 53.5-14.3 51.72-15.25 49.95-16.2 48.15-17.43 46.35-18.65 45.1-20.83 43.85-23 43.85-25.9L43.85-25.9Q43.85-30.7 48.55-33.43 53.25-36.15 60.7-36.15 68.15-36.15 72.52-34.63 76.9-33.1 76.9-30.4L76.9-30.4Q76.9-28.45 76-26.98 75.1-25.5 74.1-25.5L74.1-25.5Q73.75-25.5 71.77-26.28 69.8-27.05 68.2-27.05L68.2-27.05Q65.05-27.05 65.05-24.6L65.05-24.6Q65.05-23.4 66.55-22.4 68.05-21.4 70.17-20.48 72.3-19.55 74.45-18.4 76.6-17.25 78.1-15.25 79.6-13.25 79.6-10.4 79.6-7.55 77.77-5.2 75.95-2.85 72.95-1.55L72.95-1.55Q67 1 59.15 1L59.15 1ZM136.19-32.65L136.19-32.65 152.54-5Q153.54-3.35 153.54-2.23 153.54-1.1 152.64-0.55 151.74 0 150.54 0L150.54 0 134.44 0Q131.99 0 131.29-0.9L131.29-0.9Q131.09-1.2 130.74-1.95L130.74-1.95 129.29-5.05Q128.64-6.5 126.24-6.7L126.24-6.7 116.79-6.7Q115.74-6.7 115.19-6.5 114.64-6.3 114.29-5.6L114.29-5.6 112.34-1.55Q111.84-0.65 111.24-0.33 110.64 0 109.49 0L109.49 0 104.99 0Q103.04 0 102.89-1.4L102.89-1.4Q102.84-1.6 102.84-1.8L102.84-1.8Q102.84-2.95 103.59-4L103.59-4 119.24-31.6Q121.49-35.5 126.54-35.5L126.54-35.5 130.54-35.5Q134.54-35.5 136.19-32.65ZM119.99-19.85L119.99-19.85 117.69-15.3Q117.49-14.85 117.49-14.5L117.49-14.5Q117.49-13.2 118.74-13.2L118.74-13.2 123.29-13.2Q124.34-13.2 124.74-13.73 125.14-14.25 125.14-14.65 125.14-15.05 124.99-15.45L124.99-15.45 123.09-19.75Q122.49-21.05 121.54-21.05 120.59-21.05 119.99-19.85ZM162.19-35L162.19-35 175.59-35Q177.69-35 178.37-33.95 179.04-32.9 179.27-29.63 179.49-26.35 179.49-16.93 179.49-7.5 179.09-3.1L179.09-3.1Q178.94-1.95 178.07-1.05 177.19-0.15 175.74-0.05L175.74-0.05Q172.89 0.15 169.14 0.15 165.39 0.15 162.04-0.05L162.04-0.05Q160.59-0.15 159.72-1.05 158.84-1.95 158.69-3.1L158.69-3.1Q158.29-7.5 158.29-16.93 158.29-26.35 158.52-29.63 158.74-32.9 159.42-33.95 160.09-35 162.19-35ZM206.09-24.55L206.09-24.55 206.19-15.3Q206.19-14.35 207.24-14.35L207.24-14.35Q210.34-14.35 212.11-16.07 213.89-17.8 213.89-20.15 213.89-22.5 212.21-24.2 210.54-25.9 207.29-25.9L207.29-25.9Q206.09-25.9 206.09-24.55ZM219.19-9.6L219.19-9.6Q220.14-8.6 225.94-2.05L225.94-2.05Q226.29-1.6 226.29-1.25L226.29-1.25Q226.29 0.05 225.14 0.05L225.14 0.05Q222.49 0.1 219.81 0.1 217.14 0.1 214.49 0.05L214.49 0.05Q213.04 0.05 211.84-1.1L211.84-1.1 207.54-7.6Q207.29-7.9 206.94-8L206.94-8Q206.14-8.3 206.14-7.35L206.14-7.35 206.14-2.25Q206.14-0.1 203.31 0.05 200.49 0.2 197.14 0.2 193.79 0.2 189.04-0.05L189.04-0.05Q187.59-0.15 186.71-1.05 185.84-1.95 185.69-3.1L185.69-3.1Q185.29-7.5 185.29-16.93 185.29-26.35 185.59-30.65 185.89-34.95 189.94-35L189.94-35Q193.74-35.05 200.29-35.05 206.84-35.05 211.14-34.95L211.14-34.95Q217.34-34.85 221.29-30.35 225.24-25.85 225.24-20.2L225.24-20.2Q225.24-16.9 223.71-14.1 222.19-11.3 219.19-9.6ZM252.09-22.95L252.09-22.95 252.04-12.95Q252.04-10.75 252.71-9.68 253.39-8.6 255.54-8.6L255.54-8.6 268.19-8.6Q270.49-8.55 270.49-5.1L270.49-5.1Q270.49-2.45 269.84-1.25 269.19-0.05 267.19 0L267.19 0Q260.13 0.2 253.24 0.2 246.34 0.2 235.64 0.1L235.64 0.1Q233.84 0.1 232.71-0.78 231.59-1.65 231.44-3.2L231.44-3.2Q231.04-7.55 231.04-16.93 231.04-26.3 231.26-29.58 231.49-32.85 232.19-33.93 232.89-35 234.94-35L234.94-35 248.34-35Q250.44-35 251.11-33.9 251.79-32.8 251.94-30.35 252.09-27.9 252.09-22.95ZM278.03-35L278.03-35 291.43-35Q293.53-35 294.21-33.95 294.88-32.9 295.11-29.63 295.33-26.35 295.33-16.93 295.33-7.5 294.93-3.1L294.93-3.1Q294.78-1.95 293.91-1.05 293.03-0.15 291.58-0.05L291.58-0.05Q288.73 0.15 284.98 0.15 281.23 0.15 277.88-0.05L277.88-0.05Q276.43-0.15 275.56-1.05 274.68-1.95 274.53-3.1L274.53-3.1Q274.13-7.5 274.13-16.93 274.13-26.35 274.36-29.63 274.58-32.9 275.26-33.95 275.93-35 278.03-35ZM335.23-35L335.23-35 340.58-35Q342.28-35 342.95-34.45 343.63-33.9 343.68-32.2L343.68-32.2Q343.98-24.6 343.98-15.85 343.98-7.1 343.63-3.05L343.63-3.05Q343.53-1.9 342.75-0.95 341.98 0 340.73 0L340.73 0 332.38 0Q330.63 0 328.53-1.25L328.53-1.25Q316.93-8.1 313.93-9.6L313.93-9.6Q313.33-9.85 312.95-9.43 312.58-9 312.58-7.85L312.58-7.85 312.58-2.3Q312.58-1.35 311.88-0.8L311.88-0.8Q310.83 0.05 306.48 0.05L306.48 0.05Q305.28 0.05 304.13-0.03 302.98-0.1 302.25-1.05 301.53-2 301.48-3.1L301.48-3.1Q301.33-9.1 301.33-18.18 301.33-27.25 301.38-30 301.43-32.75 302.03-33.88 302.63-35 304.33-35L304.33-35 309.83-35Q311.53-35 313.33-34.05L313.33-34.05Q328.83-26 331.43-24.7L331.43-24.7Q332.28-24.3 332.78-24.6 333.28-24.9 333.28-25.7L333.28-25.7 333.28-32.7Q333.28-33.7 333.81-34.35 334.33-35 335.23-35ZM353.28 0Q351.88 0 350.9-0.93 349.93-1.85 349.65-3.98 349.38-6.1 349.38-16.73 349.38-27.35 349.73-30.6L349.73-30.6Q350.13-34.8 353.28-34.9L353.28-34.9Q356.88-35 383.13-35L383.13-35Q386.08-35 386.08-31.25L386.08-31.25Q386.08-28.3 383.48-28.3L383.48-28.3 372.48-28.3Q371.43-28.3 370.8-27.6 370.18-26.9 370.18-25.8L370.18-25.8 370.18-22.2Q370.18-20.7 371.53-20.7L371.53-20.7 380.63-20.7Q381.43-20.7 381.85-20.55 382.28-20.4 382.63-19.68 382.98-18.95 382.98-17.3 382.98-15.65 382.4-15.1 381.83-14.55 380.53-14.55L380.53-14.55 372.38-14.55Q371.13-14.55 370.65-13.93 370.18-13.3 370.18-12L370.18-12 370.18-9.55Q370.18-7.4 372.23-7.4L372.23-7.4 384.68-7.4Q385.58-7.4 386.28-6.88 386.98-6.35 386.98-4.58 386.98-2.8 386.13-1.4 385.28 0 384.13 0L384.13 0 353.28 0Z" opacity="1" transform="matrix(1,0,0,1,0,0)" fill="#ffffff" class="wordmark-text-0" data-fill-palette-color="primary" id="text-0"></path></svg></g></svg></g><g transform="matrix(1,0,0,1,0,47.2732086391671)"><svg viewBox="0 0 375.74399999999997 38.116645161290315" height="38.116645161290315" width="375.74399999999997"><g transform="matrix(1,0,0,1,0,0)"><svg width="375.74399999999997" viewBox="6.349999904632568 -37 471.1600036621094 47.79999923706055" height="38.116645161290315" data-palette-color="#0080ff"><path d="M26.93-30.1L12.15-30.1 12.15-19.13 25.13-19.13 25.13-14.73 12.15-14.73 12.15 0 6.35 0 6.35-34.5 27.58-34.5 26.93-30.1ZM56.6-11.4L39.1-11.4Q39.27-8.7 40.25-6.99 41.22-5.28 42.81-4.48 44.4-3.68 46.3-3.68L46.3-3.68Q48.25-3.68 49.9-4.28 51.55-4.88 53.22-5.98L53.22-5.98 55.65-2.63Q53.8-1.13 51.32-0.23 48.85 0.68 46.02 0.68L46.02 0.68Q41.92 0.68 39.09-1.07 36.25-2.83 34.77-5.95 33.3-9.08 33.3-13.18L33.3-13.18Q33.3-17.15 34.75-20.29 36.2-23.43 38.9-25.26 41.6-27.1 45.35-27.1L45.35-27.1Q48.87-27.1 51.41-25.5 53.95-23.9 55.34-20.96 56.72-18.03 56.72-13.9L56.72-13.9Q56.72-13.23 56.69-12.56 56.65-11.9 56.6-11.4L56.6-11.4ZM45.4-22.95L45.4-22.95Q42.77-22.95 41.06-21.08 39.35-19.2 39.07-15.23L39.07-15.23 51.3-15.23Q51.22-18.95 49.71-20.95 48.2-22.95 45.4-22.95ZM86.59-11.4L69.09-11.4Q69.27-8.7 70.25-6.99 71.22-5.28 72.81-4.48 74.4-3.68 76.3-3.68L76.3-3.68Q78.25-3.68 79.9-4.28 81.55-4.88 83.22-5.98L83.22-5.98 85.65-2.63Q83.8-1.13 81.32-0.23 78.84 0.68 76.02 0.68L76.02 0.68Q71.92 0.68 69.08-1.07 66.25-2.83 64.77-5.95 63.3-9.08 63.3-13.18L63.3-13.18Q63.3-17.15 64.75-20.29 66.2-23.43 68.9-25.26 71.59-27.1 75.34-27.1L75.34-27.1Q78.87-27.1 81.41-25.5 83.95-23.9 85.33-20.96 86.72-18.03 86.72-13.9L86.72-13.9Q86.72-13.23 86.68-12.56 86.65-11.9 86.59-11.4L86.59-11.4ZM75.4-22.95L75.4-22.95Q72.77-22.95 71.06-21.08 69.34-19.2 69.07-15.23L69.07-15.23 81.3-15.23Q81.22-18.95 79.71-20.95 78.2-22.95 75.4-22.95ZM92.47-37L106.04-37 106.04-7.2Q106.04-5.38 107.16-4.61 108.27-3.85 110.04-3.85L110.04-3.85Q111.19-3.85 112.22-4.1 113.24-4.35 114.22-4.73L114.22-4.73 115.64-0.83Q114.47-0.23 112.76 0.23 111.04 0.68 108.84 0.68L108.84 0.68Q104.87 0.68 102.66-1.56 100.44-3.8 100.44-7.7L100.44-7.7 100.44-32.88 92.47-32.88 92.47-37ZM176.91-30.1L162.14-30.1 162.14-19.13 175.11-19.13 175.11-14.73 162.14-14.73 162.14 0 156.34 0 156.34-34.5 177.56-34.5 176.91-30.1ZM199.49 0L184.69 0 184.69-4 188.56-4 188.56-22.43 184.69-22.43 184.69-26.4 192.84-26.4 193.86-20.28Q195.34-23.6 197.52-25.34 199.71-27.08 203.16-27.08L203.16-27.08Q204.34-27.08 205.27-26.89 206.21-26.7 207.14-26.4L207.14-26.4 205.46-21.6Q204.66-21.83 203.96-21.94 203.26-22.05 202.41-22.05L202.41-22.05Q199.54-22.05 197.45-19.9 195.36-17.75 194.16-13.8L194.16-13.8 194.16-4 199.49-4 199.49 0ZM206.19-16.68L202.19-16.68 202.19-23.18 202.89-26.4 207.14-26.4 206.19-16.68ZM236.58-11.4L219.08-11.4Q219.26-8.7 220.23-6.99 221.21-5.28 222.8-4.48 224.38-3.68 226.28-3.68L226.28-3.68Q228.23-3.68 229.88-4.28 231.53-4.88 233.21-5.98L233.21-5.98 235.63-2.63Q233.78-1.13 231.31-0.23 228.83 0.68 226.01 0.68L226.01 0.68Q221.91 0.68 219.07-1.07 216.23-2.83 214.76-5.95 213.28-9.08 213.28-13.18L213.28-13.18Q213.28-17.15 214.73-20.29 216.18-23.43 218.88-25.26 221.58-27.1 225.33-27.1L225.33-27.1Q228.86-27.1 231.4-25.5 233.93-23.9 235.32-20.96 236.71-18.03 236.71-13.9L236.71-13.9Q236.71-13.23 236.67-12.56 236.63-11.9 236.58-11.4L236.58-11.4ZM225.38-22.95L225.38-22.95Q222.76-22.95 221.05-21.08 219.33-19.2 219.06-15.23L219.06-15.23 231.28-15.23Q231.21-18.95 229.7-20.95 228.18-22.95 225.38-22.95ZM266.58-11.4L249.08-11.4Q249.26-8.7 250.23-6.99 251.21-5.28 252.79-4.48 254.38-3.68 256.28-3.68L256.28-3.68Q258.23-3.68 259.88-4.28 261.53-4.88 263.21-5.98L263.21-5.98 265.63-2.63Q263.78-1.13 261.31-0.23 258.83 0.68 256 0.68L256 0.68Q251.91 0.68 249.07-1.07 246.23-2.83 244.76-5.95 243.28-9.08 243.28-13.18L243.28-13.18Q243.28-17.15 244.73-20.29 246.18-23.43 248.88-25.26 251.58-27.1 255.33-27.1L255.33-27.1Q258.86-27.1 261.39-25.5 263.93-23.9 265.32-20.96 266.71-18.03 266.71-13.9L266.71-13.9Q266.71-13.23 266.67-12.56 266.63-11.9 266.58-11.4L266.58-11.4ZM255.38-22.95L255.38-22.95Q252.76-22.95 251.04-21.08 249.33-19.2 249.06-15.23L249.06-15.23 261.28-15.23Q261.21-18.95 259.69-20.95 258.18-22.95 255.38-22.95ZM324.45-5.1L326.48-1.4Q325.03-0.48 323 0.1 320.98 0.68 318.78 0.68L318.78 0.68Q314.18 0.68 311.79-1.71 309.4-4.1 309.4-8L309.4-8 309.4-22.33 303.53-22.33 303.53-26.4 309.4-26.4 309.4-32.3 315-32.98 315-26.4 323.9-26.4 323.28-22.33 315-22.33 315-8.05Q315-5.93 316.06-4.89 317.13-3.85 319.55-3.85L319.55-3.85Q321-3.85 322.23-4.2 323.45-4.55 324.45-5.1L324.45-5.1ZM345-27.1L345-27.1Q348.87-27.1 351.52-25.38 354.17-23.65 355.54-20.55 356.9-17.45 356.9-13.25L356.9-13.25Q356.9-9.08 355.51-5.94 354.12-2.8 351.46-1.06 348.8 0.68 344.97 0.68L344.97 0.68Q341.15 0.68 338.49-1.01 335.82-2.7 334.44-5.83 333.05-8.95 333.05-13.2L333.05-13.2Q333.05-17.32 334.44-20.45 335.82-23.58 338.5-25.34 341.17-27.1 345-27.1ZM345-22.75L345-22.75Q341.97-22.75 340.45-20.44 338.92-18.13 338.92-13.2L338.92-13.2Q338.92-8.3 340.44-5.98 341.95-3.65 344.97-3.65L344.97-3.65Q348-3.65 349.51-5.98 351.02-8.3 351.02-13.25L351.02-13.25Q351.02-18.13 349.52-20.44 348.02-22.75 345-22.75ZM416.89-30.1L402.12-30.1 402.12-19.13 415.09-19.13 415.09-14.73 402.12-14.73 402.12 0 396.32 0 396.32-34.5 417.54-34.5 416.89-30.1ZM422.44-37L436.02-37 436.02-7.2Q436.02-5.38 437.13-4.61 438.24-3.85 440.02-3.85L440.02-3.85Q441.17-3.85 442.19-4.1 443.22-4.35 444.19-4.73L444.19-4.73 445.62-0.83Q444.44-0.23 442.73 0.23 441.02 0.68 438.82 0.68L438.82 0.68Q434.84 0.68 432.63-1.56 430.42-3.8 430.42-7.7L430.42-7.7 430.42-32.88 422.44-32.88 422.44-37ZM471.76-26.4L477.51-26.4 468.41 0.1Q467.39 3.1 465.79 5.39 464.19 7.68 461.69 9.08 459.19 10.48 455.49 10.8L455.49 10.8 454.76 6.6Q457.44 6.18 459.03 5.36 460.61 4.55 461.55 3.23 462.49 1.9 463.21 0L463.21 0 461.31 0 452.41-26.4 458.36-26.4 465.01-3.9 471.76-26.4Z" opacity="1" transform="matrix(1,0,0,1,0,0)" fill="#ffffff" class="slogan-text-1" data-fill-palette-color="secondary" id="text-1"></path></svg></g></svg></g></svg></g></svg></g><g><svg viewBox="0 0 196.16568418652182 196.16568418652182" height="196.16568418652182" width="196.16568418652182"><g><svg></svg></g><g id="icon-0"><svg viewBox="0 0 196.16568418652182 196.16568418652182" height="196.16568418652182" width="196.16568418652182"><g><rect width="178.36546469552263" height="178.36546469552263" x="8.900109745499591" y="8.900109745499591" fill="#ffffff" opacity="0"  data-fill-palette-color="accent"></rect><rect width="178.36546469552263" height="178.36546469552263" x="17.80021949099919" y="-8.881784197001252e-15" fill="#ffffff" opacity="0" data-fill-palette-color="accent"></rect></g><g transform="matrix(1,0,0,1,25.428884987141714,25.432483105754997)"><svg viewBox="0 0 145.3079142122384 145.30071797501182" height="145.30071797501182" width="145.3079142122384"><g><svg xmlns="http://www.w3.org/2000/svg" xmlns:xlink="http://www.w3.org/1999/xlink" version="1.1" x="0" y="0" viewBox="1.3260011672973633 1.3251044750213623 29.347347259521484 29.34589385986328" enable-background="new 0 0 32 32" xml:space="preserve" height="145.30071797501182" width="145.3079142122384" class="icon-s-0" data-fill-palette-color="background" id="s-0"><path d="M21.984 5.393L18 9.378l-5.5-1.236c0.519-0.725 1.314-2.416 0.666-3.063-0.744-0.742-2.84 0.398-3.308 0.867L8.548 7.256l-3.86-0.867-2.9 2.9 3.203 1.522-0.118 0.118 2.441 2.441 0.987-0.986 4.541 2.158-4.198 5.402-5.686-0.058-1.632 1.633 5.167 1.361 2.626 2.626 1.359 5.165 1.632-1.633-0.057-6.045 5.403-3.832 2.158 4.541-0.986 0.987 2.443 2.439 0.116-0.116 1.523 3.203 2.901-2.901-0.868-3.857 1.31-1.309c0.468-0.469 1.608-2.568 0.866-3.31-0.628-0.65-2.341 0.145-3.064 0.664l-1.236-5.507 3.986-3.985c1.358-1.359 5.173-6.979 3.759-8.38C28.963 0.229 23.344 4.034 21.984 5.393z" fill="#00ffef" data-fill-palette-color="background"></path></svg></g></svg></g></svg></g></svg></g></svg></g><defs></defs></svg><rect width="395.52" height="129.15865308229272" fill="none" stroke="none" visibility="hidden"></rect></g></svg></g></svg>