<svg xmlns="http://www.w3.org/2000/svg" version="1.1" xmlns:xlink="http://www.w3.org/1999/xlink" xmlns:svgjs="http://svgjs.dev/svgjs" width="128" height="128" viewBox="0 0 128 128"><g transform="matrix(0.8046875,0,0,0.8046875,12.760752631578946,12.758195919840205)"><svg viewBox="0 0 95 95" data-background-color="#00ffef" preserveAspectRatio="xMidYMid meet" height="128" width="128" xmlns="http://www.w3.org/2000/svg" xmlns:xlink="http://www.w3.org/1999/xlink"><g id="tight-bounds" transform="matrix(1,0,0,1,-0.24049999999999727,-0.23814186781378055)"><svg viewBox="0 0 95.481 95.47628373562755" height="95.47628373562755" width="95.481"><g><svg viewBox="0 0 95.481 95.47628373562755" height="95.47628373562755" width="95.481"><g><svg viewBox="0 0 95.481 95.47628373562755" height="95.47628373562755" width="95.481"><g id="textblocktransform"><svg viewBox="0 0 95.481 95.47628373562755" height="95.47628373562755" width="95.481" id="textblock"><g><svg viewBox="0 0 95.481 95.47628373562755" height="95.47628373562755" width="95.481"><g><svg viewBox="0 0 95.481 95.47628373562755" height="95.47628373562755" width="95.481"><g><svg xmlns="http://www.w3.org/2000/svg" xmlns:xlink="http://www.w3.org/1999/xlink" version="1.1" x="0" y="0" viewBox="1.3260000000000003 1.3251055871289188 29.347344018897644 29.34589441287108" enable-background="new 0 0 32 32" xml:space="preserve" height="95.47628373562755" width="95.481" class="icon-icon-0" data-fill-palette-color="accent" id="icon-0"><path d="M21.984 5.393L18 9.378l-5.5-1.236c0.519-0.725 1.314-2.416 0.666-3.063-0.744-0.742-2.84 0.398-3.308 0.867L8.548 7.256l-3.86-0.867-2.9 2.9 3.203 1.522-0.118 0.118 2.441 2.441 0.987-0.986 4.541 2.158-4.198 5.402-5.686-0.058-1.632 1.633 5.167 1.361 2.626 2.626 1.359 5.165 1.632-1.633-0.057-6.045 5.403-3.832 2.158 4.541-0.986 0.987 2.443 2.439 0.116-0.116 1.523 3.203 2.901-2.901-0.868-3.857 1.31-1.309c0.468-0.469 1.608-2.568 0.866-3.31-0.628-0.65-2.341 0.145-3.064 0.664l-1.236-5.507 3.986-3.985c1.358-1.359 5.173-6.979 3.759-8.38C28.963 0.229 23.344 4.034 21.984 5.393z" fill="#0023ff" data-fill-palette-color="accent"></path></svg></g></svg></g></svg></g></svg></g></svg></g></svg></g><defs></defs></svg><rect width="95.481" height="95.47628373562755" fill="none" stroke="none" visibility="hidden"></rect></g></svg></g></svg>